<svg xmlns="http://www.w3.org/2000/svg" xmlns:xlink="http://www.w3.org/1999/xlink" width="1764" height="1351" overflow="hidden"><script>(
            function hookGeo() {}
          )();</script><style><![CDATA[.B{stroke-linejoin:round}.C{fill:#d15d64}.D{stroke:#1a73e8}.E{stroke-width:.626}.F{fill:#fcd05c}.G{fill:#27363a}.H{fill:#7b63ab}.I{fill:#e98333}]]></style><defs><path d="M6.23.067V5.69H.61V.066h5.62z" id="A" class="D E"/><path d="M.67.697h9.937v9.938H.67z" id="B" class="D E"/><path id="C" d="M239.057 166.72l1.36.745c.191.105.261.345.155.537a.4.4 0 0 1-.155.155l-1.36.743a.4.4 0 0 0-.156.157l-.743 1.36c-.104.191-.343.262-.534.158-.067-.037-.122-.091-.158-.158l-.743-1.36c-.036-.066-.091-.121-.157-.157l-1.36-.743c-.191-.105-.261-.345-.155-.537a.4.4 0 0 1 .155-.155l1.36-.744a.39.39 0 0 0 .157-.155l.743-1.36c.105-.191.345-.261.537-.155a.4.4 0 0 1 .155.155l.744 1.36c.037.066.092.12.157.156"/><path id="D" d="M961.978 138.117l2.756 1.507c.191.105.26.345.155.535a.4.4 0 0 1-.155.155l-2.756 1.507a.4.4 0 0 0-.156.16l-1.507 2.754c-.104.191-.343.261-.533.157-.066-.036-.121-.091-.157-.157l-1.508-2.756c-.036-.066-.091-.121-.157-.157l-2.755-1.505c-.191-.105-.26-.345-.155-.535a.4.4 0 0 1 .155-.155l2.755-1.508c.066-.036.121-.09.157-.156l1.507-2.755c.104-.191.343-.261.533-.157.066.036.121.091.157.157l1.508 2.755a.39.39 0 0 0 .156.156"/><path id="E" d="M1083.06 100.72l1.36.745a.39.39 0 0 1 .15.537.38.38 0 0 1-.15.155l-1.36.743a.41.41 0 0 0-.16.157l-.74 1.36c-.11.191-.35.262-.54.158-.06-.037-.12-.091-.15-.158l-.75-1.36c-.03-.066-.09-.121-.15-.157l-1.36-.743c-.19-.105-.26-.345-.16-.537.04-.065.09-.119.16-.155l1.36-.744c.06-.036.12-.089.15-.155l.75-1.36c.1-.191.34-.261.53-.155.07.036.12.09.16.155l.74 1.36a.4.4 0 0 0 .16.156"/><path id="F" d="M1455.98 1061.82l2.75-1.5c.19-.11.26-.35.16-.54a.41.41 0 0 0-.16-.16l-2.75-1.5a.41.41 0 0 1-.16-.16l-1.5-2.76c-.11-.19-.35-.26-.54-.15-.06.03-.12.09-.16.15l-1.5 2.76a.41.41 0 0 1-.16.16l-2.76 1.5c-.19.11-.26.35-.15.54.03.06.09.12.15.16l2.76 1.5a.41.41 0 0 1 .16.16l1.5 2.75c.15.28.55.28.69 0l1.51-2.75a.41.41 0 0 1 .16-.16"/><path id="G" d="M1402.06 1085.9l1.36-.74c.19-.11.26-.35.15-.54a.36.36 0 0 0-.15-.15l-1.36-.75c-.07-.03-.12-.09-.16-.15l-.74-1.36c-.11-.19-.35-.26-.54-.16-.06.04-.12.09-.15.16l-.75 1.36a.36.36 0 0 1-.15.15l-1.36.75c-.19.1-.26.34-.16.53a.41.41 0 0 0 .16.16l1.36.74c.06.04.12.09.15.16l.75 1.36c.15.27.54.27.69 0l.74-1.36a.41.41 0 0 1 .16-.16"/><path id="H" d="M381.446 464.478c10.557 0 19.115 8.558 19.115 19.114s-8.557 19.115-19.114 19.115-19.114-8.558-19.114-19.115 8.557-19.114 19.114-19.114z"/></defs><g fill="none" fill-rule="evenodd"><g class="D E"><path d="M717.978 92.117l2.756 1.507c.191.105.26.345.155.535-.036.065-.09.119-.155.155l-2.756 1.508c-.066.036-.12.09-.156.156l-1.507 2.756c-.104.191-.343.261-.533.157-.066-.036-.121-.091-.157-.157l-1.508-2.755c-.036-.067-.09-.123-.157-.16l-2.755-1.505c-.191-.105-.26-.345-.155-.535.036-.065.09-.119.155-.155l2.755-1.508c.066-.036.121-.091.157-.157l1.507-2.754c.104-.191.343-.261.533-.157.066.036.121.091.157.157l1.508 2.754c.036.067.09.12.156.157" class="C"/><use xlink:href="#C" class="F"/><path d="M409.472 108L408 109.47m5.47-5.47l-1.47 1.472m-2.457 2.691c.723.723 1.897.723 2.62 0s.723-1.897 0-2.62-1.897-.723-2.62 0-.723 1.897 0 2.62z" class="B"/><use xlink:href="#D" class="C"/><path d="M1144.98 177.117l2.75 1.507a.4.4 0 0 1 .16.535c-.04.065-.09.119-.16.155l-2.75 1.508a.4.4 0 0 0-.16.156l-1.5 2.756c-.11.191-.35.263-.54.16a.48.48 0 0 1-.16-.16l-1.5-2.756a.4.4 0 0 0-.16-.156l-2.76-1.507c-.19-.104-.26-.343-.15-.533.03-.066.09-.121.15-.157l2.76-1.508a.4.4 0 0 0 .16-.156l1.5-2.755a.4.4 0 0 1 .54-.155.38.38 0 0 1 .15.155l1.51 2.756a.41.41 0 0 0 .16.157" class="I"/><use xlink:href="#E" class="F"/><path d="M1206.81 253.907c0 1.606-1.3 2.907-2.91 2.906-1.6-.001-2.9-1.303-2.9-2.909s1.3-2.907 2.91-2.906c1.6.001 2.9 1.303 2.9 2.909M114.978 319.116l2.756 1.507c.191.104.262.343.158.534-.037.067-.091.122-.158.158l-2.756 1.507a.39.39 0 0 0-.156.156l-1.507 2.755c-.104.191-.343.261-.533.157-.066-.036-.121-.091-.157-.157l-1.508-2.755c-.036-.066-.091-.12-.157-.156l-2.755-1.507c-.191-.104-.262-.343-.158-.534.037-.067.091-.122.158-.158l2.755-1.507a.39.39 0 0 0 .157-.155l1.507-2.755c.104-.191.343-.261.533-.157.066.036.121.091.157.157l1.508 2.756c.036.067.09.12.156.156" class="C"/><use xlink:href="#C" x="-33" y="286" class="F"/><path d="M1661.98 527.116l2.75 1.508c.19.105.26.345.16.537-.04.065-.09.119-.16.155l-2.75 1.506c-.07.036-.12.091-.16.157l-1.5 2.754c-.11.191-.35.263-.54.16a.48.48 0 0 1-.16-.16l-1.5-2.755a.4.4 0 0 0-.16-.158l-2.76-1.506c-.19-.104-.26-.343-.15-.534.03-.067.09-.122.15-.158l2.76-1.508c.07-.035.12-.089.16-.155l1.5-2.755c.11-.191.35-.261.54-.157.06.036.12.091.15.157l1.51 2.755a.4.4 0 0 0 .16.156m-285.1-426.47l1.3.71c.26.144.26.52 0 .66l-1.3.713c-.07.034-.12.086-.15.148l-.71 1.3c-.1.182-.33.248-.52.148a.35.35 0 0 1-.14-.148l-.71-1.3c-.04-.063-.09-.114-.16-.148l-1.3-.712c-.18-.101-.24-.33-.14-.512.03-.062.08-.114.14-.148l1.3-.71a.4.4 0 0 0 .16-.15l.7-1.3c.1-.183.33-.251.51-.153.07.035.12.088.16.153l.71 1.3a.32.32 0 0 0 .15.15" class="C"/><use xlink:href="#E" x="551" y="282" class="F"/><path d="M411 385.888l3.554-.888-.887 3.554z" class="B"/><path d="M522.226 503.018l2.018 1.104-2.018 1.103-1.104 2.018-1.104-2.018-2.018-1.103 2.018-1.104 1.104-2.018z" fill="#00a959"/><path d="M530.98 40.117l2.754 1.507c.191.105.26.345.155.535-.036.065-.09.119-.155.155l-2.755 1.508a.4.4 0 0 0-.158.156l-1.506 2.756c-.103.191-.341.263-.532.16a.39.39 0 0 1-.16-.16l-1.507-2.756c-.037-.066-.091-.12-.157-.156l-2.755-1.507c-.191-.104-.261-.343-.157-.533.036-.066.091-.121.157-.157l2.755-1.508c.066-.036.12-.09.157-.156l1.508-2.755c.105-.191.345-.26.535-.155.065.036.119.09.155.155l1.507 2.756a.4.4 0 0 0 .157.157" class="I"/><path d="M653.86 202.256l-.847-1.6c-.041-.076-.104-.139-.18-.18l-1.6-.848c-.212-.112-.293-.374-.182-.586a.43.43 0 0 1 .182-.182l1.6-.847c.076-.041.139-.104.18-.18l.847-1.6c.112-.213.375-.294.587-.183.078.041.142.105.183.183l.845 1.6c.041.076.104.139.18.18l1.6.847c.31.163.31.605 0 .768l-1.6.847c-.077.041-.139.103-.18.18l-.846 1.6c-.112.213-.375.294-.587.183-.078-.041-.142-.105-.183-.183z" class="B"/><use xlink:href="#D" x="-368" y="23" class="C"/><path d="M177.98 127.117l2.754 1.507c.191.105.26.345.155.535a.4.4 0 0 1-.155.155l-2.756 1.508a.39.39 0 0 0-.156.156l-1.507 2.756c-.104.191-.343.261-.533.157-.066-.036-.121-.091-.157-.157l-1.507-2.756c-.038-.066-.093-.12-.16-.156l-2.752-1.507c-.191-.104-.261-.343-.157-.533.036-.066.091-.121.157-.157l2.754-1.508a.4.4 0 0 0 .157-.156l1.508-2.755c.105-.191.345-.26.535-.155a.4.4 0 0 1 .155.155l1.507 2.756a.4.4 0 0 0 .156.157" class="I"/><path d="M299.813 56.907a2.91 2.91 0 0 1-2.909 2.906 2.91 2.91 0 0 1-2.906-2.909 2.91 2.91 0 0 1 2.909-2.906 2.91 2.91 0 0 1 2.906 2.909" class="C"/><path d="M50.86 205.256l-.847-1.6c-.041-.076-.104-.139-.18-.18l-1.6-.848c-.212-.112-.293-.374-.182-.586.041-.078.104-.141.182-.182l1.6-.847c.076-.041.139-.104.18-.18l.847-1.6c.112-.213.375-.294.587-.183.078.041.142.105.183.183l.845 1.6c.041.076.104.139.18.18l1.6.847c.31.163.31.605 0 .768l-1.6.847c-.077.041-.139.103-.18.18l-.846 1.6c-.112.213-.375.294-.587.183-.078-.041-.142-.105-.182-.183z" class="B"/><path d="M1690.98 261.116l2.75 1.507c.19.105.26.345.16.537-.04.065-.09.119-.16.155l-2.75 1.507a.4.4 0 0 0-.16.156l-1.5 2.755c-.11.191-.35.263-.54.16a.48.48 0 0 1-.16-.16l-1.5-2.755c-.04-.067-.09-.121-.16-.156l-2.76-1.507c-.19-.104-.26-.343-.15-.534.03-.067.09-.122.15-.158l2.76-1.507c.07-.035.12-.089.16-.155l1.5-2.755c.11-.191.35-.261.54-.157.06.036.12.091.15.157l1.51 2.756a.4.4 0 0 0 .16.156" class="C"/><path d="M1637.06 223.722l1.36.743a.39.39 0 0 1 .15.537.38.38 0 0 1-.15.155l-1.36.744c-.07.036-.12.091-.16.157l-.74 1.36a.4.4 0 0 1-.54.155.38.38 0 0 1-.15-.155l-.75-1.36c-.03-.066-.09-.12-.15-.156l-1.36-.743c-.19-.105-.26-.345-.16-.537.04-.065.09-.119.16-.155l1.36-.743c.06-.036.12-.091.15-.157l.75-1.36c.1-.191.34-.261.53-.155.07.036.12.09.16.155l.74 1.36c.04.066.09.121.16.157" class="H"/><path d="M1611.88 48.645l1.3.71a.38.38 0 0 1 0 .662l-1.3.71c-.07.035-.12.087-.15.15l-.71 1.3c-.1.182-.33.248-.52.148-.06-.034-.11-.086-.14-.148l-.71-1.3c-.04-.063-.09-.115-.16-.15l-1.3-.71a.38.38 0 0 1-.15-.512.44.44 0 0 1 .15-.151l1.3-.71a.4.4 0 0 0 .16-.15l.7-1.298c.1-.183.33-.251.51-.153.07.035.12.088.16.153l.71 1.298a.32.32 0 0 0 .15.15" class="C"/><use xlink:href="#E" x="580" y="16" class="F"/></g><g transform="translate(1580 434)"><mask id="I" fill="#fff"><use xlink:href="#A"/></mask><path d="M4.667 1.79l1.36.743c.191.104.262.343.158.534-.036.067-.091.121-.158.158l-1.36.743a.4.4 0 0 0-.157.156l-.743 1.36c-.104.191-.343.262-.534.158-.067-.036-.121-.091-.158-.158l-.744-1.36c-.036-.066-.09-.12-.155-.156l-1.36-.743C.625 3.12.555 2.88.661 2.688c.036-.065.09-.119.155-.155l1.36-.744a.39.39 0 0 0 .156-.157l.745-1.36c.104-.191.343-.262.534-.158.067.036.121.091.158.158l.743 1.36c.036.066.09.12.157.156" mask="url(#I)" class="D E H"/></g><g class="D E"><path d="M1384.98 483.118l2.75 1.507a.4.4 0 0 1 .16.535c-.04.065-.09.119-.16.155l-2.75 1.507a.4.4 0 0 0-.16.156l-1.5 2.755c-.11.191-.35.263-.54.16a.48.48 0 0 1-.16-.16l-1.5-2.755c-.04-.066-.09-.121-.16-.156l-2.76-1.507c-.19-.104-.26-.343-.15-.533.03-.066.09-.121.15-.157l2.76-1.507c.07-.036.12-.091.16-.157l1.5-2.755c.11-.191.35-.261.54-.157.06.036.12.091.15.157l1.51 2.756a.4.4 0 0 0 .16.158" class="F"/><path d="M1273.88 338.646l1.3.71c.26.144.26.52 0 .66l-1.3.712a.32.32 0 0 0-.15.15l-.71 1.298c-.1.182-.33.248-.52.148a.35.35 0 0 1-.14-.148l-.71-1.3c-.04-.063-.09-.114-.16-.148l-1.3-.712c-.18-.101-.24-.33-.14-.512.03-.062.08-.114.14-.148l1.3-.71a.4.4 0 0 0 .16-.15l.7-1.3a.38.38 0 0 1 .51-.153c.07.035.12.088.16.153l.71 1.3a.32.32 0 0 0 .15.15" class="C"/><use xlink:href="#E" x="411" y="306" class="F"/><path d="M1712 450.524l1.76-.542 1.76.542-.54-1.762.55-1.762-1.77.543L1712 447l.54 1.762z" class="B"/></g><g transform="translate(1598 622)"><mask id="J" fill="#fff"><use xlink:href="#B"/></mask><path d="M7.648 3.813l2.755 1.507c.191.105.26.345.155.535-.036.065-.09.119-.155.155L7.648 7.52a.39.39 0 0 0-.157.157L5.985 10.43c-.105.191-.345.26-.535.155-.065-.036-.119-.09-.155-.155l-1.51-2.755a.39.39 0 0 0-.157-.157L.873 6.01c-.191-.105-.26-.345-.155-.535.036-.065.09-.119.155-.155L3.63 3.813a.39.39 0 0 0 .156-.157L5.293.9c.105-.191.345-.26.535-.155.065.036.119.09.155.155l1.508 2.756a.39.39 0 0 0 .158.157" mask="url(#J)" class="C D E"/></g><g class="D E"><path d="M70.472 513L69 514.47m5.47-5.47L73 510.47m-2.457 2.693a1.85 1.85 0 0 0 2.62 0c.724-.723.724-1.896 0-2.62s-1.897-.723-2.62 0-.724 1.897 0 2.62z" class="B"/><path d="M239.057 1200.9l1.36-.74a.4.4 0 0 0 .155-.54.38.38 0 0 0-.155-.15l-1.36-.75c-.066-.03-.12-.09-.156-.15l-.743-1.37c-.104-.19-.343-.26-.534-.15-.067.03-.122.09-.158.15l-.743 1.36c-.036.07-.091.13-.157.16l-1.36.74a.4.4 0 0 0-.155.54c.036.07.09.12.155.16l1.36.74a.41.41 0 0 1 .157.16l.743 1.36c.15.27.542.27.692 0l.744-1.36c.036-.07.091-.12.157-.16" class="F"/><path d="M1206.81 1132.91c0-1.61-1.3-2.91-2.91-2.91-1.6 0-2.9 1.3-2.9 2.91a2.9 2.9 0 0 0 2.91 2.9c1.6 0 2.9-1.3 2.9-2.9m-1091.832-97.09l2.756-1.5c.191-.11.262-.35.158-.54-.037-.06-.091-.12-.158-.16l-2.756-1.5a.4.4 0 0 1-.156-.16l-1.507-2.76c-.104-.19-.343-.26-.533-.15-.066.03-.121.09-.157.15l-1.508 2.76c-.036.07-.091.12-.157.16l-2.755 1.5a.4.4 0 0 0-.155.54.38.38 0 0 0 .155.15l2.755 1.51a.41.41 0 0 1 .157.16l1.507 2.75a.39.39 0 0 0 .69 0l1.508-2.75a.4.4 0 0 1 .156-.16" class="C"/><path d="M206.057 793.9l1.36-.744c.191-.105.261-.345.155-.537a.4.4 0 0 0-.155-.155l-1.36-.743a.39.39 0 0 1-.156-.156l-.743-1.36c-.104-.191-.343-.262-.534-.158-.067.037-.122.091-.158.158l-.743 1.36c-.036.067-.091.121-.157.158l-1.36.742c-.191.105-.261.345-.155.537a.4.4 0 0 0 .155.155l1.36.745c.066.037.12.09.157.156l.743 1.36c.15.273.542.273.692 0l.744-1.36c.036-.066.091-.12.157-.156" class="F"/><use xlink:href="#F" class="C"/><use xlink:href="#G" class="H"/><path d="M411 894.666l3.554.888-.887-3.554z" class="B"/><path d="M522.226 745.225l2.018-1.104-2.018-1.102-1.104-2.018-1.104 2.018L518 744.12l2.018 1.105 1.104 2.018z" fill="#00a959"/><path d="M177.98 1225.82l2.754-1.5c.191-.11.262-.35.158-.54-.037-.06-.091-.12-.158-.16l-2.756-1.5a.4.4 0 0 1-.156-.16l-1.507-2.75a.4.4 0 0 0-.533-.16c-.066.04-.121.09-.157.16l-1.507 2.75a.41.41 0 0 1-.16.16l-2.752 1.51c-.191.1-.261.34-.157.53.036.07.091.12.157.16l2.754 1.5a.41.41 0 0 1 .157.16l1.508 2.75a.39.39 0 0 0 .69 0l1.507-2.75a.4.4 0 0 1 .156-.16" class="I"/><path d="M299.813 1325.91a2.91 2.91 0 0 0-2.909-2.91c-1.606 0-2.907 1.3-2.906 2.91.001 1.6 1.304 2.91 2.909 2.9 1.606 0 2.907-1.3 2.906-2.9" class="C"/><path d="M50.86 1174.23l-.847 1.6c-.041.08-.104.14-.18.18l-1.6.85c-.212.11-.293.37-.182.59a.47.47 0 0 0 .182.18l1.6.84c.076.05.14.11.18.19l.847 1.6c.163.3.605.3.77 0l.845-1.6a.5.5 0 0 1 .18-.19l1.6-.84a.44.44 0 0 0 .182-.59c-.041-.08-.104-.14-.182-.18l-1.6-.85c-.077-.04-.139-.1-.18-.18l-.846-1.6a.44.44 0 0 0-.587-.18c-.078.04-.142.11-.182.18z" class="B"/><use xlink:href="#F" x="235" y="49" class="C"/><use xlink:href="#G" x="235" y="70" class="H"/><path d="M1611.88 1349.73l1.3-.71c.18-.1.25-.33.14-.52-.03-.06-.08-.11-.14-.14l-1.3-.71c-.07-.04-.12-.09-.15-.16l-.71-1.3c-.1-.18-.33-.24-.52-.14-.06.03-.11.08-.14.14l-.71 1.3a.41.41 0 0 1-.16.16l-1.3.7c-.18.1-.25.33-.15.52.04.06.09.11.15.15l1.3.71c.07.03.12.08.16.15l.7 1.3c.1.18.33.25.51.15.07-.04.12-.09.16-.15l.71-1.3c.03-.07.08-.12.15-.15" class="C"/><path d="M1663.06 1249.9l1.36-.74c.19-.11.26-.35.15-.54a.36.36 0 0 0-.15-.15l-1.36-.75c-.07-.03-.12-.09-.16-.15l-.74-1.37c-.11-.19-.35-.26-.54-.15a.36.36 0 0 0-.15.15l-.75 1.36c-.03.07-.09.13-.15.16l-1.36.74c-.19.11-.26.35-.16.54a.41.41 0 0 0 .16.16l1.36.74c.06.04.12.09.15.16l.75 1.36c.15.27.54.27.69 0l.74-1.36a.41.41 0 0 1 .16-.16" class="F"/></g><g transform="matrix(1 0 0 -1 1587 986)"><mask id="K" fill="#fff"><use xlink:href="#C" href="#A"/></mask><path d="M4.667 1.79l1.36.743c.191.104.262.343.158.534-.036.067-.091.121-.158.158l-1.36.743a.4.4 0 0 0-.157.156l-.743 1.36c-.104.191-.343.262-.534.158-.067-.036-.121-.091-.158-.158l-.744-1.36c-.036-.066-.09-.12-.155-.156l-1.36-.743C.625 3.12.555 2.88.661 2.688c.036-.065.09-.119.155-.155l1.36-.744a.39.39 0 0 0 .156-.157l.745-1.36c.104-.191.343-.262.534-.158.067.036.121.091.158.158l.743 1.36c.036.066.09.12.157.156" mask="url(#K)" class="D E H"/></g><g class="D E"><path d="M1164 915l2.78-2.78M1156 923l2.78-2.78m2.83-7.314c0-.997-5.49 4.486-4.49 4.486-1 0 4.49 5.484 4.49 4.487 0 .996 5.48-4.488 4.48-4.488 1 0-4.48-5.483-4.48-4.486z" class="B"/><path d="M1384.98 770.822l2.75-1.507a.4.4 0 0 0 .16-.534.4.4 0 0 0-.16-.158l-2.75-1.506a.4.4 0 0 1-.16-.156l-1.5-2.755c-.11-.191-.35-.263-.54-.16a.48.48 0 0 0-.16.16l-1.5 2.755c-.04.067-.09.121-.16.157l-2.76 1.507c-.19.104-.26.343-.15.533.03.066.09.121.15.157l2.76 1.508c.07.036.12.091.16.157l1.5 2.754c.15.274.55.274.69 0l1.51-2.755a.4.4 0 0 1 .16-.158" class="F"/><path d="M1273.88 962.727l1.3-.71c.18-.101.25-.33.14-.512-.03-.062-.08-.114-.14-.148l-1.3-.712a.32.32 0 0 1-.15-.15l-.71-1.3c-.1-.182-.33-.248-.52-.148a.35.35 0 0 0-.14.148l-.71 1.3a.4.4 0 0 1-.16.15l-1.3.71a.38.38 0 0 0-.15.511c.04.064.09.116.15.151l1.3.71a.4.4 0 0 1 .16.15l.7 1.3a.38.38 0 0 0 .51.153c.07-.035.12-.088.16-.153l.71-1.3a.32.32 0 0 1 .15-.15" class="C"/><path d="M1494.06 873.9l1.36-.744a.39.39 0 0 0 .15-.537.38.38 0 0 0-.15-.155l-1.36-.743a.4.4 0 0 1-.16-.156l-.74-1.36c-.11-.191-.35-.262-.54-.158-.06.037-.12.091-.15.158l-.75 1.36c-.03.067-.09.121-.15.158l-1.36.742c-.19.105-.26.345-.16.537.04.065.09.119.16.155l1.36.745c.06.037.12.09.15.156l.75 1.36c.15.273.54.273.69 0l.74-1.36a.4.4 0 0 1 .16-.156" class="F"/><path d="M1712 812l1.76.542 1.76-.542-.54 1.762.55 1.762-1.77-.543-1.76.544.54-1.762zM70.472 721L69 719.53m5.47 5.47L73 723.53m-2.457-2.693a1.85 1.85 0 1 1 2.62 2.62c-.724.724-1.897.723-2.62 0s-.724-1.897 0-2.62z" class="B"/></g><g opacity=".5" class="D E"><path d="M373.247 442.788c4.296 3.612 4.85 10.023 1.237 14.32a10.16 10.16 0 0 1-10.065 3.36c-1.154 1.653-1.81 3.362-1.5 4.926.158.796-.377.72-.654.36-1.387-1.802-2.994-4.632-2.882-8.138-3.57-3.698-3.838-9.57-.457-13.59 3.613-4.297 10.024-4.85 14.32-1.238" fill="#dbe7f0"/><path d="M370.31 449.378h-1.215l.012-.59c0-.78-.703-3.015-1.803-3.015-.35 0-.703.18-.937.46a1.02 1.02 0 0 0-.252.85c.15.89.168 1.37-.38 1.97-.6.655-.89.93-1.436.93h-1.203c-.637-.004-1.2.56-1.2 1.198v2.404a1.24 1.24 0 0 0 1.2 1.202h1.034l.867.517a.62.62 0 0 0 .312.084h3.803c.68 0 1.707-.3 1.802-1.13l.59-3.575c.012-.048.012-.084.012-.12a1.15 1.15 0 0 0-1.202-1.184h-.006zm0 4.808c-.03.414-.765.6-1.203.6h-3.804l-1.004-.6v-3.607c.817 0 1.268-.45 1.88-1.13.74-.817.686-1.54.53-2.482-.048-.3.3-.6.6-.6.5 0 1.202 1.64 1.202 2.403l-.012.62c0 .415.2.583.613.583h1.202c.38 0 .59.217.6.6l-.6 3.607-.006.006z" class="G"/><path d="M400.562 483.592a19.02 19.02 0 0 0-4.186-11.93c-2.117-2.222-4.432-.835-5.07 9.53-.766 12.432-7.31 4.13-12.526 9.985-5.203 5.844-17.318-4.782-14.19 1.43 3.22 6.01 9.56 10.1 16.857 10.1a19.12 19.12 0 0 0 19.115-19.115" fill="#4d595d"/><g class="B"><use xlink:href="#H"/><use xlink:href="#H"/><path d="M363.84 476.14c3.66 1.605 8.12 3.147 11.752 3.147 7.577 0 9.3-4.65 18.253-4.822l4.366-.06m-24.178 26.811c1.376-3.52 4.187-8.467 9.652-11.252 6.53-3.326 11.208-.57 16.055-.814m-34.384 4.766c2.948-.404 7.794-1.682 11.786-5.674 6.2-6.2 7.92-6.37 11.71-6.37 3.103 0 7.71 3.234 11.64 3.363M373.727 466.1c3.98.616 8.786 1.863 11.853 4.404 2.395 1.985 6.528 1.848 10.644.963m-26.459-3.005c1.467.318 2.818.663 3.696.947 2.897.936 5.453 1.277 4.715 3.333-.938 2.61-5.274 1.137-8.17.2-.95-.306-2.138-.87-3.3-1.518m-4.248 9.971c3.822.546 9.144 1.832 9.69 4.78.376 2.04-3.85 3.184-8.714 3.828m13.074 12.06c3.32-3.523 11.45-10.65 21.097-8.256h.002"/></g></g><g opacity=".5" class="D E"><path d="M1532.11 302.432c-40.54-52.804-43.99 39.154-122.52 23.703 22 27.912 56.12 45.83 94.43 45.83 66.37 0 120.17-53.805 120.17-120.178 0-39.354-18.91-74.285-48.14-96.208l-5.04 2.005c22.04 27.215-19.4 170.245-38.9 144.847" fill="#4d595d"/><path d="M1383.84 249.923a119.61 119.61 0 0 1 2.69-23.617m42.37 119.034c-2.97-2.366-5.81-4.872-8.54-7.51m123.49 26.874a120.25 120.25 0 0 1-30.65 6.533M1617.31 212.7c1.55 4.5 2.83 9.096 3.83 13.762m-38.28-65.155c3.6 3.15 7.01 6.515 10.2 10.076m-109.31-38.067a119.45 119.45 0 0 1 23.02-1.673" class="B"/><path d="M1429.22 347.407c4.52 3.988 9.96 7.712 16.62 10.84.28.13.51.33.68.587.73 1.124 3.4 3.995 4.25 4.897.18.188.39.323.63.41l8.84 3.218c.25.095.48.25.66.454l5.73 6.455c.38.424.95.62 1.51.523l6.05-1.065a1.58 1.58 0 0 1 .65.017l4.28.978c.22.05.45.055.67.012l4.96-.94a1.66 1.66 0 0 1 .64.005l9.52 1.985a1.62 1.62 0 0 0 1.02-.12l5.02-2.32a1.65 1.65 0 0 1 .69-.152l7.94.008a1.64 1.64 0 0 0 .87-.248l5-3.12c1.06-.66.56-2.29-.69-2.242l-3.87.148c-.26.01-.53-.043-.76-.158l-9.46-4.507a1.66 1.66 0 0 0-1.1-.11l-5.36 1.316a1.65 1.65 0 0 1-1.12-.123l-15.31-7.585c-.16-.074-.32-.125-.49-.15l-12.27-1.845c-.26-.038-.52-.143-.73-.305l-9.95-7.432a1.66 1.66 0 0 0-1.02-.326l-11.68.275c-.12.002-.24-.009-.37-.033l-10.64-2.186c-1.64-.338-2.68 1.73-1.41 2.84" class="G"/><path d="M1429.22 347.407c4.52 3.988 9.96 7.712 16.62 10.84.28.13.51.33.68.587.73 1.124 3.4 3.995 4.25 4.897.18.188.39.323.63.41l8.84 3.218c.25.095.48.25.66.454l5.73 6.455c.38.424.95.62 1.51.523l6.05-1.065a1.58 1.58 0 0 1 .65.017l4.28.978c.22.05.45.055.67.012l4.96-.94a1.66 1.66 0 0 1 .64.005l9.52 1.985a1.62 1.62 0 0 0 1.02-.12l5.02-2.32a1.65 1.65 0 0 1 .69-.152l7.94.008a1.64 1.64 0 0 0 .87-.248l5-3.12c1.06-.66.56-2.29-.69-2.242l-3.87.148c-.26.01-.53-.043-.76-.158l-9.46-4.507a1.66 1.66 0 0 0-1.1-.11l-5.36 1.316a1.65 1.65 0 0 1-1.12-.123l-15.31-7.585c-.16-.074-.32-.125-.49-.15l-12.27-1.845c-.26-.038-.52-.143-.73-.305l-9.95-7.432a1.66 1.66 0 0 0-1.02-.326l-11.68.275c-.12.002-.24-.009-.37-.033l-10.64-2.186c-1.64-.338-2.68 1.73-1.41 2.84z" class="B"/><path d="M1595.75 171.66c8.49 9.6 19.72 26.172 22.89 39.2a1.62 1.62 0 0 1-.41 1.513c-3.71 3.898-21.43 20.263-23.31 22a1.38 1.38 0 0 1-.38.254l-10.53 5.145c-.12.062-.26.11-.4.134l-5.52 1.105a1.64 1.64 0 0 0-1.02.67l-6.53 9.33a1.64 1.64 0 0 1-2.14.494l-24.44-13.58c-.45-.246-.75-.682-.83-1.182l-3.09-20.038a1.63 1.63 0 0 1 .82-1.682l15.87-8.86c.4-.222.69-.595.79-1.034l6.74-27.035c.15-.616.65-1.088 1.27-1.21l28.67-5.73a1.63 1.63 0 0 1 1.55.508" class="G"/><path d="M1595.75 171.66c8.49 9.6 19.72 26.172 22.89 39.2a1.62 1.62 0 0 1-.41 1.513c-3.71 3.898-21.43 20.263-23.31 22a1.38 1.38 0 0 1-.38.254l-10.53 5.145c-.12.062-.26.11-.4.134l-5.52 1.105a1.64 1.64 0 0 0-1.02.67l-6.53 9.33a1.64 1.64 0 0 1-2.14.494l-24.44-13.58c-.45-.246-.75-.682-.83-1.182l-3.09-20.038a1.63 1.63 0 0 1 .82-1.682l15.87-8.86c.4-.222.69-.595.79-1.034l6.74-27.035c.15-.616.65-1.088 1.27-1.21l28.67-5.73a1.63 1.63 0 0 1 1.55.508z" class="B"/><path d="M1383.83 277.438c-1.85-8.611-2.72-17.407-2.57-26.214.02-1.37 1.65-2.09 2.7-1.21l7.91 6.636a1.62 1.62 0 0 0 1.23.373l12.9-1.46a1.64 1.64 0 0 1 1.05.24l15.88 9.933a1.6 1.6 0 0 0 .54.22l16.19 3.235c.37.077.76.018 1.1-.163l13.96-7.536c.67-.361 1.49-.215 2 .352l10.16 11.405c.24.27.39.616.41.98l1.87 27.814a1.65 1.65 0 0 1-.53 1.326l-13.42 12.154c-.23.208-.39.476-.47.773l-3.88 13.864c-.17.624-.7 1.086-1.34 1.18l-16.9 2.457a1.68 1.68 0 0 1-.47 0l-7.18-1.048a1.63 1.63 0 0 0-1.64.778l-2.08 3.5a1.65 1.65 0 0 1-2.26.568c-.09-.055-.18-.117-.26-.188-7.46-6.728-13.77-14.133-18.97-22.02h21.63c7.02 0-3.5-3.665-10.99-3.187l-3.04.188c-.25-2.444-2.85-6.547-8.62-6.613a17.05 17.05 0 0 0 1.14-1.862c11.31-18.812-3.52-28.586-16.05-26.472z" class="G"/><path d="M1399.76 315.384c5.2 7.887 11.51 15.29 18.97 22.02a1.65 1.65 0 0 0 2.33-.127c.07-.078.13-.163.19-.253l2.08-3.5a1.63 1.63 0 0 1 1.64-.778l7.18 1.048a1.54 1.54 0 0 0 .46 0l16.91-2.458c.64-.094 1.17-.556 1.34-1.18l3.87-13.863c.09-.297.25-.565.48-.773l13.41-12.154c.38-.336.57-.824.54-1.325l-1.87-27.812a1.62 1.62 0 0 0-.41-.98l-10.16-11.406a1.64 1.64 0 0 0-2-.35l-13.97 7.535a1.63 1.63 0 0 1-1.1.164l-16.18-3.234a1.62 1.62 0 0 1-.54-.22l-15.88-9.933c-.31-.195-.68-.279-1.05-.24l-12.9 1.46a1.63 1.63 0 0 1-1.23-.373l-7.91-6.636c-1.05-.88-2.68-.16-2.7 1.21a115.62 115.62 0 0 0 2.57 26.233m98.01-145.596c-40.29 6.95-84.5 37.83-96.6 92.68a1.66 1.66 0 0 0 1.97 1.96l3.49-.808a1.63 1.63 0 0 1 1.6.496l9.01 10.01c.39.435.98.627 1.56.506l23.45-4.997c.4-.087.75-.317.99-.647l14.67-20.428a1.64 1.64 0 0 0-.11-2.048l-7.54-8.405a1.64 1.64 0 0 1-.39-1.39l2.43-13.225c.1-.527.45-.974.94-1.195l14.23-6.466c.82-.374 1.79-.01 2.17.813a1.59 1.59 0 0 1 .14.567l.74 11.123c.03.41.21.794.51 1.08l19.44 18.422a1.66 1.66 0 0 0 1.55.393l16.55-4.365c.16-.043.32-.06.49-.052 2.15.1 17.42.794 17.65.257.21-.525 1.7-15.952 1.96-18.685a1.51 1.51 0 0 1 .28-.763l9.51-13.675a1.63 1.63 0 0 0-.09-1.985l-16.12-19.296a1.65 1.65 0 0 0-.67-.474l-19.85-7.74c-.55-.214-.95-.714-1.02-1.303-.26-1.916-.82-6.277-1.03-8.87a1.64 1.64 0 0 0-1.76-1.508c-.05.004-.1.01-.15.018z" class="B"/><path d="M1620.34 227.284l-4.85 11.086c-.2.443-.57.775-1.04.914l-12.18 3.624a1.64 1.64 0 0 0-.73.457l-10.94 11.832c-.32.354-.48.836-.42 1.314l2.08 16.555a1.69 1.69 0 0 1-.39 1.28l-9.23 10.573a1.63 1.63 0 0 1-1.28.56l-16.34-.43c-.89-.023-1.63.662-1.69 1.547l-1.07 19.236a1.62 1.62 0 0 1-.14.573l-7.61 17.106c-.17.407-.18.868-.02 1.28l5.99 14.818c.19.463.15.986-.09 1.42l-8.3 14.683a1.45 1.45 0 0 1-.29.374c-.85.806-4.73 4.514-7.49 7.372-1.14 1.183-.02 3.11 1.58 2.723 26.15-6.267 91.19-51.263 77.58-138.47-.25-1.625-2.47-1.93-3.13-.426" class="G"/><path d="M1620.34 227.284l-4.85 11.086c-.2.443-.57.775-1.04.914l-12.18 3.624a1.64 1.64 0 0 0-.73.457l-10.94 11.832c-.32.354-.48.836-.42 1.314l2.08 16.555a1.69 1.69 0 0 1-.39 1.28l-9.23 10.573a1.63 1.63 0 0 1-1.28.56l-16.34-.43c-.89-.023-1.63.662-1.69 1.547l-1.07 19.236a1.62 1.62 0 0 1-.14.573l-7.61 17.106c-.17.407-.18.868-.02 1.28l5.99 14.818c.19.463.15.986-.09 1.42l-8.3 14.683a1.45 1.45 0 0 1-.29.374c-.85.806-4.73 4.514-7.49 7.372-1.14 1.183-.02 3.11 1.58 2.723 26.15-6.267 91.19-51.263 77.58-138.47-.25-1.625-2.47-1.93-3.13-.426zm-112.06-97.414l14.24-.803a1.59 1.59 0 0 1 1.09.34l2.2 1.702a1.64 1.64 0 0 0 1.39.296l8.71-2.083c.43-.102.88-.027 1.26.207l3.64 2.303a1.64 1.64 0 0 0 1.16.23l5.55-.978a1.61 1.61 0 0 1 .9.096l1.95.803a1.67 1.67 0 0 1 .84.777l1.83 3.646c.23.46.67.783 1.18.873l3.75.672a1.63 1.63 0 0 1 1 .593l2.82 3.55a1.52 1.52 0 0 0 .37.34l6.4 4.297c.21.142.38.32.51.54.43.77 1.53 2.663 1.79 2.89a7020.47 7020.47 0 0 0 12.57 10.293.44.44 0 0 1-.18.765c-.88.21-2.22.514-2.89.607-.23.033-.47-.004-.68-.107l-8.67-4.134c-.11-.05-.22-.092-.34-.12l-9.54-2.203c-.19-.046-.39-.056-.58-.03l-9.56 1.272c-.4.053-.81-.044-1.14-.272l-14.58-9.99a1.61 1.61 0 0 0-.52-.234l-16.95-4.396c-.34-.09-.65-.293-.88-.576l-4.42-5.66a1.61 1.61 0 0 0-.61-.483l-4.2-1.9c-1.56-.71-1.12-3.03.59-3.126z" class="B"/><path d="M1350.28 152.803c10.91-3.648 22.72 2.246 26.37 13.163 2.56 7.677.41 15.79-4.9 21.203 1.66 3.784 3.95 6.757 7.02 7.89 1.56.577.85 1.43-.08 1.53-4.63.5-11.3.28-17.32-3.67-10.28 2.287-20.84-3.53-24.26-13.744-3.64-10.918 2.25-22.725 13.17-26.373" fill="#dbe7f0"/><path d="M1363.83 167.265c-.68-.828-1.64-1.25-2.89-1.314-1.28 0-2.22.552-2.89 1.315l-.55.638c-.23.276-.65.313-.92.082-.03-.025-.06-.052-.08-.082l-.56-.638c-.68-.763-1.53-1.314-2.89-1.314-1.25.066-2.22.5-2.89 1.315-.68.802-1.02 1.684-1.05 2.63 0 .682.12 1.996.88 3.51.73 1.456 2.91 3.695 6.59 6.668a.66.66 0 0 0 .83 0c3.67-2.973 5.88-5.2 6.6-6.668.75-1.526.87-2.853.87-3.51-.03-.946-.37-1.828-1.05-2.656v.025z" class="G"/><path d="M1616.75 204.907h69.56c11.15 0 6.37-4.142-7.65-2.866l-2.08.153c-1.57-1.702-5.47-3.782-9.27-2.613-.64-4.567-8.22-10.058-15.36-5.288-.52-7.097-7.66-13.905-15.19-7.848 2.25-11.497-.78-24.157-18.33-22.648-10.81.93-15.69 6.52-17.21 13.25m-190.82 135.15l-3.04.188c-.25-2.444-2.85-6.547-8.62-6.613a17.05 17.05 0 0 0 1.14-1.862c16.57-27.565-22.99-35.727-29.18-15.508-1.31 4.28-1.85 8.465-1.84 12.162-1.97-1.26-4.66-2.07-8.33-2.07-10 0-13.28 8.763-12.27 12.954-1.8-1.124-3.82-2.215-8.29-1.8-8.61.797-17.21 5.737-4.14 5.737h85.56c7.02 0-3.5-3.666-10.99-3.188z" class="B"/></g></g></svg>